<svg width="66" height="38" viewBox="0 0 66 38" fill="none" xmlns="http://www.w3.org/2000/svg">
<g clip-path="url(#clip0_502_79)">
<path d="M7.40991 0.0439871C8.30112 0.0439871 9.15841 0.0439871 10.0496 0.0439871C10.0496 6.64817 10.0496 13.2523 10.0496 19.8822C9.17536 19.8822 8.3096 19.8822 7.40991 19.8822C7.40991 13.2694 7.40991 6.68235 7.40991 0.0439871ZM1.09493 37.5674C2.60577 37.5674 4.12509 37.5843 5.63594 37.5589C6.11126 37.5502 6.59506 37.482 7.06191 37.3794C8.47089 37.0718 9.32817 36.0123 9.47246 34.4575C9.58279 33.2271 8.8783 32.1507 7.6136 31.6039C7.56269 31.5782 7.51176 31.5441 7.44384 31.51C7.51176 31.4587 7.54571 31.4244 7.57967 31.4075C8.58972 30.7667 9.08201 29.844 8.8783 28.6564C8.6661 27.4431 7.91918 26.6485 6.70542 26.3752C6.28101 26.2814 5.83966 26.2129 5.40677 26.2129C4.09116 26.1957 2.77553 26.2044 1.45991 26.2044C1.29864 26.2044 1.12888 26.2044 0.950641 26.2044C0.950641 30.0147 0.950641 33.7655 0.950641 37.5502C1.01005 37.5502 1.0525 37.5674 1.09493 37.5674ZM2.45299 32.2446C3.82802 32.313 5.17759 32.3215 6.51868 32.4753C7.45233 32.5864 7.93616 33.3894 7.89371 34.4232C7.85127 35.3544 7.24015 36.1064 6.29799 36.1662C5.0333 36.2431 3.7686 36.1833 2.46148 36.1833C2.45299 34.9103 2.45299 33.6373 2.45299 32.2446ZM2.4445 27.6141C2.47846 27.5885 2.50393 27.5544 2.52939 27.5544C3.74316 27.58 4.95692 27.5713 6.16219 27.6567C6.92608 27.7167 7.39293 28.3402 7.44384 29.1689C7.49478 29.9722 7.07886 30.6129 6.32346 30.818C5.98395 30.9119 5.62746 30.9631 5.27945 30.9716C4.35427 30.9888 3.4206 30.9803 2.4445 30.9803C2.4445 29.8183 2.4445 28.7076 2.4445 27.6141ZM50.2567 19.9078C50.8507 19.9078 51.4279 19.8822 52.005 19.9163C52.3872 19.9334 52.506 19.8223 52.506 19.4208C52.4889 13.1156 52.4973 6.81903 52.4973 0.513884C52.4973 0.360098 52.4973 0.214858 52.4973 0.0439871C51.7251 0.0439871 51.0037 0.0439871 50.2651 0.0439871C50.2567 6.68235 50.2567 13.2609 50.2567 19.9078ZM12.2819 28.904C11.7048 30.0491 11.5605 31.2708 11.6623 32.5523C11.9 35.4313 13.8097 37.6356 16.7635 37.7725C18.843 37.8663 21.0329 36.8923 21.9411 34.5942C22.4164 33.3894 22.5353 32.1592 22.3825 30.869C22.0345 27.9387 19.955 26.025 16.5853 25.9822C14.8792 26.0165 13.2665 26.9477 12.2819 28.904ZM13.2241 32.8597C13.1222 31.9285 13.0968 30.9888 13.3938 30.0747C13.9795 28.2548 15.3291 27.2639 17.1964 27.2895C18.9194 27.3236 20.2266 28.383 20.7019 30.2027C21.0838 31.6551 21.0753 33.0991 20.3624 34.4745C19.6664 35.8074 18.5545 36.4566 17.2983 36.4823C14.65 36.5079 13.4108 34.577 13.2241 32.8597ZM65.764 31.3562C65.6452 28.1351 63.3957 25.9565 60.2129 25.9993C58.354 26.025 56.894 26.8195 55.8927 28.4171C55.1541 29.5876 54.9165 30.8777 54.9759 32.2533C55.1032 35.2178 56.9705 37.5843 60.0092 37.7725C62.0803 37.9004 64.4144 36.9436 65.3311 34.5001C65.6452 33.663 65.8234 32.8087 65.7724 31.8174C65.764 31.7236 65.7724 31.5357 65.764 31.3562ZM62.9629 35.4826C61.2059 37.1999 58.2181 36.713 57.0893 34.4916C56.1642 32.6718 56.2065 30.7752 57.242 28.9897C58.0231 27.6397 59.3046 27.1869 60.7901 27.3151C62.131 27.4262 63.1158 28.1266 63.7184 29.3484C64.1258 30.177 64.2869 31.0657 64.2446 31.9028C64.2956 33.3384 63.9221 34.5429 62.9629 35.4826ZM54.6532 19.8736C55.3918 19.8736 56.0964 19.8736 56.8178 19.8736C56.8178 13.2438 56.8178 6.64817 56.8178 0.0354435C56.0877 0.0354435 55.3833 0.0354435 54.6532 0.0354435C54.6532 6.68235 54.6532 13.2694 54.6532 19.8736ZM34.3928 37.5417C37.2108 37.5417 40.0033 37.5417 42.8042 37.5417C42.8042 37.1059 42.8042 36.7043 42.8042 36.2346C40.4871 36.2346 38.1953 36.2346 35.9035 36.2346C35.9035 34.9103 35.9035 33.6543 35.9035 32.3472C37.9916 32.3472 40.0456 32.3472 42.1082 32.3472C42.1082 31.8859 42.1082 31.4672 42.1082 31.0059C40.0117 31.0059 37.9577 31.0059 35.9122 31.0059C35.9122 29.8268 35.9122 28.6992 35.9122 27.52C38.1444 27.52 40.3428 27.52 42.5327 27.52C42.5327 27.0503 42.5327 26.6316 42.5327 26.2214C39.7996 26.2214 37.1088 26.2214 34.3928 26.2214C34.3928 30.0063 34.3928 33.7655 34.3928 37.5417ZM16.4155 0.0439871C15.728 0.0439871 15.0575 0.0439871 14.3615 0.0439871C14.3615 6.66525 14.3615 13.2523 14.3615 19.8822C15.0575 19.8822 15.7195 19.8822 16.4155 19.8822C16.4155 13.2609 16.4155 6.66525 16.4155 0.0439871ZM40.8861 19.8822C41.565 19.8822 42.227 19.8822 42.9061 19.8822C42.9061 13.2609 42.9061 6.66525 42.9061 0.0439871C42.227 0.0439871 41.5736 0.0439871 40.8861 0.0439871C40.8861 6.68235 40.8861 13.2694 40.8861 19.8822ZM45.1809 0.0439871C44.6376 0.0439871 44.1369 0.0439871 43.6276 0.0439871C43.6276 6.67378 43.6276 13.278 43.6276 19.8822C44.1708 19.8822 44.6715 19.8822 45.1809 19.8822C45.1809 13.2523 45.1809 6.64817 45.1809 0.0439871ZM44.646 27.5544C45.8939 27.5544 47.1076 27.5544 48.3723 27.5544C48.3723 30.9203 48.3723 34.2353 48.3723 37.5332C48.8901 37.5332 49.3568 37.5332 49.8746 37.5332C49.8746 34.1927 49.8746 30.8862 49.8746 27.5287C51.1309 27.5287 52.3446 27.5287 53.5754 27.5287C53.5754 27.0672 53.5754 26.6485 53.5754 26.2129C50.5876 26.2129 47.6254 26.2129 44.6376 26.2129C44.646 26.6829 44.646 27.0844 44.646 27.5544ZM21.6355 19.8822C22.0769 19.8822 22.4928 19.8822 22.9341 19.8822C22.9341 13.2609 22.9341 6.66525 22.9341 0.0439871C22.4928 0.0439871 22.0769 0.0439871 21.6355 0.0439871C21.6355 6.66525 21.6355 13.2609 21.6355 19.8822ZM27.9166 19.8736C27.9166 13.2438 27.9166 6.64817 27.9166 0.0525307C27.4667 0.0525307 27.0593 0.0525307 26.6433 0.0525307C26.6433 6.67378 26.6433 13.2609 26.6433 19.8736C27.0932 19.8736 27.5006 19.8736 27.9166 19.8736ZM12.231 19.8822C12.6724 19.8822 13.0883 19.8822 13.5297 19.8822C13.5297 13.2609 13.5297 6.66525 13.5297 0.0439871C13.0883 0.0439871 12.6724 0.0439871 12.231 0.0439871C12.231 6.68235 12.231 13.2694 12.231 19.8822ZM3.39515 19.8651C3.845 19.8651 4.2694 19.8651 4.69378 19.8651C4.69378 13.2352 4.69378 6.64817 4.69378 0.0439871C4.25243 0.0439871 3.83651 0.0439871 3.39515 0.0439871C3.39515 6.68235 3.39515 13.2694 3.39515 19.8651ZM18.9449 0.00981277C18.5205 -0.0414486 18.4017 0.103792 18.4017 0.548056C18.4187 6.82757 18.4102 13.0986 18.4102 19.3781C18.4102 19.4806 18.3847 19.5917 18.4187 19.6771C18.4611 19.7711 18.563 19.8992 18.6393 19.8992C18.9958 19.9249 19.3608 19.9078 19.7343 19.9078C19.7343 13.2609 19.7343 6.67378 19.7343 0.0183563C19.4457 0.0183563 19.191 0.0439871 18.9449 0.00981277ZM47.7526 0.0525307C47.3113 0.0525307 46.9039 0.0525307 46.4879 0.0525307C46.4879 6.68235 46.4879 13.278 46.4879 19.8822C46.9294 19.8822 47.3284 19.8822 47.7526 19.8822C47.7526 13.2609 47.7526 6.66525 47.7526 0.0525307ZM31.9567 37.5417C31.9567 37.1059 31.9567 36.6959 31.9567 36.2515C31.7785 36.2515 31.6258 36.2515 31.4729 36.2515C29.9451 36.2515 28.4173 36.2431 26.898 36.2602C26.5161 36.2687 26.3973 36.1746 26.3973 35.7646C26.4141 32.7487 26.4057 29.7329 26.4057 26.717C26.4057 26.5547 26.3888 26.3924 26.3802 26.2214C25.8795 26.2214 25.4212 26.2214 24.9457 26.2214C24.9457 29.9978 24.9457 33.7484 24.9457 37.5417C27.3053 37.5417 29.6226 37.5417 31.9567 37.5417ZM48.2874 19.8822C48.525 19.8822 48.7458 19.8822 48.9834 19.8822C48.9834 13.2609 48.9834 6.66525 48.9834 0.0439871C48.7542 0.0439871 48.5421 0.0439871 48.2874 0.0439871C48.2874 6.66525 48.2874 13.2609 48.2874 19.8822ZM38.8829 19.8822C39.1291 19.8822 39.3412 19.8822 39.5875 19.8822C39.5875 13.2609 39.5875 6.66525 39.5875 0.0439871C39.3497 0.0439871 39.1291 0.0439871 38.8829 0.0439871C38.8829 6.66525 38.8829 13.2609 38.8829 19.8822ZM58.77 0.0610742C58.5238 0.0610742 58.2946 0.0610742 58.0654 0.0610742C58.0654 6.69088 58.0654 13.2694 58.0654 19.8822C58.3117 19.8822 58.5238 19.8822 58.77 19.8822C58.77 13.2609 58.77 6.66525 58.77 0.0610742ZM60.7646 19.8736C61.0022 19.8736 61.2145 19.8736 61.4776 19.8736C61.4776 19.6771 61.4776 19.5062 61.4776 19.3354C61.4776 13.09 61.4776 6.83611 61.4776 0.590774C61.4776 -0.0499922 61.469 -0.0499922 60.7646 0.0696176C60.7646 6.65671 60.7646 13.2609 60.7646 19.8736ZM31.8634 0.0439871C31.6172 0.0439871 31.4051 0.0439871 31.1588 0.0439871C31.1588 6.66525 31.1588 13.2609 31.1588 19.8822C31.4051 19.8822 31.6258 19.8822 31.8634 19.8822C31.8634 13.2609 31.8634 6.66525 31.8634 0.0439871ZM1.45142 19.8822C1.69757 19.8822 1.90977 19.8822 2.15592 19.8822C2.15592 13.2609 2.15592 6.66525 2.15592 0.0439871C1.91826 0.0439871 1.69757 0.0439871 1.45142 0.0439871C1.45142 6.68235 1.45142 13.2694 1.45142 19.8822ZM10.856 19.8736C11.0936 19.8736 11.3143 19.8736 11.535 19.8736C11.535 13.2438 11.535 6.64817 11.535 0.0354435C11.2888 0.0354435 11.0852 0.0354435 10.856 0.0354435C10.856 6.66525 10.856 13.2609 10.856 19.8736ZM29.9622 19.8651C30.2168 19.8651 30.4374 19.8651 30.6666 19.8651C30.6666 13.2352 30.6666 6.64817 30.6666 0.0439871C30.4205 0.0439871 30.1998 0.0439871 29.9622 0.0439871C29.9622 6.66525 29.9622 13.2609 29.9622 19.8651ZM5.93301 19.8822C6.17068 19.8822 6.39135 19.8822 6.63751 19.8822C6.63751 13.2609 6.63751 6.66525 6.63751 0.0439871C6.39984 0.0439871 6.17917 0.0439871 5.93301 0.0439871C5.93301 6.66525 5.93301 13.2609 5.93301 19.8822ZM0 19.8736C0.246148 19.8736 0.441369 19.8736 0.653566 19.8736C0.653566 13.2438 0.653566 6.64817 0.653566 0.0354435C0.424394 0.0354435 0.237659 0.0354435 0 0.0354435C0 6.67378 0 13.278 0 19.8736ZM35.7847 0.0525307C35.5471 0.0525307 35.335 0.0525307 35.1227 0.0525307C35.1227 6.68235 35.1227 13.278 35.1227 19.8907C35.3519 19.8907 35.5471 19.8907 35.7847 19.8907C35.7847 13.2523 35.7847 6.65671 35.7847 0.0525307ZM33.7476 19.8736C33.9854 19.8736 34.1976 19.8736 34.4183 19.8736C34.4183 13.2438 34.4183 6.64817 34.4183 0.0439871C34.1807 0.0439871 33.9768 0.0439871 33.7476 0.0439871C33.7476 6.66525 33.7476 13.2609 33.7476 19.8736ZM33.0687 0.0525307C32.8311 0.0525307 32.6104 0.0525307 32.3983 0.0525307C32.3983 6.68235 32.3983 13.278 32.3983 19.8822C32.6359 19.8822 32.848 19.8822 33.0687 19.8822C33.0687 13.2609 33.0687 6.66525 33.0687 0.0525307ZM63.3705 0.0525307C63.1326 0.0525307 62.9205 0.0525307 62.6998 0.0525307C62.6998 6.68235 62.6998 13.278 62.6998 19.8907C62.9289 19.8907 63.1242 19.8907 63.3705 19.8907C63.3705 13.2609 63.3705 6.66525 63.3705 0.0525307ZM63.8882 19.8736C64.1258 19.8736 64.3379 19.8736 64.5503 19.8736C64.5503 13.2438 64.5503 6.64817 64.5503 0.0354435C64.3211 0.0354435 64.1258 0.0354435 63.8882 0.0354435C63.8882 6.66525 63.8882 13.2609 63.8882 19.8736ZM25.2853 19.8736C25.5229 19.8736 25.7268 19.8736 25.9389 19.8736C25.9389 13.2438 25.9389 6.64817 25.9389 0.0354435C25.7181 0.0354435 25.5229 0.0354435 25.2853 0.0354435C25.2853 6.67378 25.2853 13.278 25.2853 19.8736ZM20.4388 19.8736C20.6764 19.8736 20.8886 19.8736 21.1008 19.8736C21.1008 13.2438 21.1008 6.65671 21.1008 0.0354435C20.8717 0.0354435 20.6679 0.0354435 20.4388 0.0354435C20.4388 6.69089 20.4388 13.2865 20.4388 19.8736Z" fill="black"/>
</g>
<defs>
<clipPath id="clip0_502_79">
<rect width="66" height="38" fill="white"/>
</clipPath>
</defs>
</svg>
